<svg width="14" height="10" viewBox="0 0 14 10" fill="none" xmlns="http://www.w3.org/2000/svg">
<path d="M1.95262 0.195149C2.21299 -0.0649737 2.63506 -0.0651249 2.89533 0.195149C3.15538 0.455441 3.15538 0.877565 2.89533 1.13786C0.812534 3.22065 0.812534 6.59803 2.89533 8.68083C3.15524 8.9412 3.15551 9.36333 2.89533 9.62354C2.63512 9.88374 2.21301 9.88346 1.95262 9.62354C-0.650874 7.02004 -0.650874 2.79864 1.95262 0.195149ZM10.437 0.195149C10.6973 -0.0651251 11.1193 -0.0649743 11.3797 0.195149C13.9832 2.79864 13.9832 7.02004 11.3797 9.62354C11.1193 9.88346 10.6972 9.88374 10.437 9.62354C10.1768 9.36333 10.1771 8.9412 10.437 8.68083C12.5198 6.59803 12.5198 3.22065 10.437 1.13786C10.1769 0.877565 10.1769 0.455441 10.437 0.195149ZM3.83804 2.08057C4.09841 1.82044 4.52047 1.82029 4.78075 2.08057C5.041 2.34084 5.04086 2.76292 4.78075 3.02327C3.73935 4.06467 3.73935 5.75401 4.78075 6.79541C5.04067 7.05579 5.04095 7.47791 4.78075 7.73812C4.52052 7.99815 4.09836 7.99799 3.83804 7.73812C2.27594 6.17602 2.27594 3.64266 3.83804 2.08057ZM8.55158 2.08057C8.81185 1.82029 9.23392 1.82044 9.49429 2.08057C11.0564 3.64266 11.0564 6.17602 9.49429 7.73812C9.23396 7.99799 8.8118 7.99815 8.55158 7.73812C8.29137 7.47791 8.29166 7.05579 8.55158 6.79541C9.59298 5.75401 9.59298 4.06467 8.55158 3.02327C8.29146 2.76292 8.29133 2.34084 8.55158 2.08057ZM5.33283 4.90869C5.33307 4.17252 5.92993 3.57536 6.66616 3.57536C7.40239 3.57536 7.99925 4.17252 7.9995 4.90869C7.9995 5.64507 7.40254 6.24203 6.66616 6.24203C5.92978 6.24203 5.33283 5.64507 5.33283 4.90869Z" fill="#14151A"/>
</svg>
